<?xml version="1.0" encoding="UTF-8" standalone="no"?>
<!DOCTYPE svg PUBLIC "-//W3C//DTD SVG 1.1//EN" "http://www.w3.org/Graphics/SVG/1.1/DTD/svg11.dtd">
<svg width="100%" height="100%" viewBox="0 0 20 24" version="1.1" xmlns="http://www.w3.org/2000/svg" xmlns:xlink="http://www.w3.org/1999/xlink" xml:space="preserve" xmlns:serif="http://www.serif.com/" style="fill-rule:evenodd;clip-rule:evenodd;stroke-linejoin:round;stroke-miterlimit:2;">
    <g transform="matrix(1,0,0,1,5,0)">
        <g id="rect839" transform="matrix(-1,0,0,1,17,-4.44089e-16)">
            <path d="M24,3L11,3C6.029,3 2,7.029 2,12C2,16.971 6.029,21 11,21L24,21L24,3Z" style="fill:rgb(77,77,77);"/>
        </g>
        <g id="path2" transform="matrix(-1,0,0,1,13.9973,-4.44089e-16)">
            <path d="M10.295,19.716C10.689,20.104 11.322,20.099 11.71,19.706C12.097,19.312 12.093,18.679 11.699,18.292L5.484,12.004L11.699,5.715C12.093,5.328 12.097,4.694 11.71,4.301C11.322,3.908 10.689,3.903 10.295,4.291L3.371,11.113C2.874,11.603 2.874,12.404 3.371,12.894L10.295,19.716Z" style="fill:rgb(33,33,33);fill-rule:nonzero;"/>
        </g>
    </g>
</svg>
